<svg xmlns="http://www.w3.org/2000/svg" viewBox="0 0 128 128">
  <rect width="128" height="128" rx="28" fill="#18181b"/>
  <g transform="translate(24 24) scale(3.333)" stroke="#fff" stroke-width="2" fill="none" stroke-linecap="round" stroke-linejoin="round">
    <path d="m16 16 2 2 4-4"/>
    <path d="M21 10V8a2 2 0 0 0-1-1.73l-7-4a2 2 0 0 0-2 0l-7 4A2 2 0 0 0 3 8v8a2 2 0 0 0 1 1.73l7 4a2 2 0 0 0 2 0l2-1.14"/>
    <path d="m7.5 4.27 9 5.15"/>
    <polyline points="3.29 7 12 12 20.71 7"/>
    <line x1="12" x2="12" y1="22" y2="12"/>
  </g>
</svg>
